<svg xmlns="http://www.w3.org/2000/svg" xmlns:xlink="http://www.w3.org/1999/xlink" viewBox="0 0 48.13 41.5"><defs><style>.cls-1{fill:none;}.cls-2{fill:#24b294;}.cls-3{clip-path:url(#clip-path);}</style><clipPath id="clip-path"><polygon class="cls-1" points="27.98 18.08 38.42 0 17.54 0 27.98 18.08"/></clipPath></defs><title>资源 2</title><g id="图层_2" data-name="图层 2"><g id="图层_1-2" data-name="图层 1"><path class="cls-2" d="M37.27.78,25.07,21.91a1.16,1.16,0,0,1-2,0l-8-13.85A14.84,14.84,0,0,0,9.32,18.12L22.2,40.42a2.17,2.17,0,0,0,3.76,0l22-38.08A1.56,1.56,0,0,0,46.57,0H38.62A1.56,1.56,0,0,0,37.27.78Z"/><path class="cls-2" d="M12.55,3.7,10.86.78A1.56,1.56,0,0,0,9.51,0H1.56A1.56,1.56,0,0,0,.21,2.34L5.81,12A19.91,19.91,0,0,1,12.55,3.7Z"/><g class="cls-3"><path class="cls-2" d="M24.06,5A14.85,14.85,0,1,1,9.21,19.85,14.87,14.87,0,0,1,24.06,5m0-5A19.85,19.85,0,1,0,43.92,19.85,19.85,19.85,0,0,0,24.06,0Z"/></g></g></g></svg>